<?xml version="1.0" encoding="UTF-8"?> <svg xmlns="http://www.w3.org/2000/svg" width="74" height="41" viewBox="0 0 74 41" fill="none"> <path d="M57.4355 16.8228C63.9977 16.823 68.1551 20.2373 68.1553 25.8687C68.1553 31.5004 64.0077 34.9018 57.4355 34.9019C50.8632 34.9019 46.7158 31.5136 46.7158 25.8687C46.716 20.2241 50.8634 16.8228 57.4355 16.8228ZM7.62891 17.2193C8.00947 17.2193 8.31836 17.5284 8.31836 17.9088V33.817C8.31814 34.1972 8.00933 34.5055 7.62891 34.5055H0.689453C0.309032 34.5055 0.000222558 34.1972 0 33.817V17.9088C0 17.5284 0.308894 17.2193 0.689453 17.2193H7.62891ZM19.2451 17.2193C19.6255 17.2195 19.9336 17.5285 19.9336 17.9088V33.817C19.9334 34.1971 19.6254 34.5053 19.2451 34.5055H12.3047C11.9244 34.5053 11.6164 34.1971 11.6162 33.817V17.9088C11.6162 17.5284 11.9242 17.2195 12.3047 17.2193H19.2451ZM30.8535 9.63632C31.234 9.63632 31.5427 9.94451 31.543 10.3248V24.0846H31.6836L36.1895 17.5182C36.3174 17.3313 36.5305 17.2193 36.7568 17.2193H44.3926C44.9634 17.2195 45.2882 17.8761 44.9404 18.3287L40.2412 24.4625V24.4586C40.0674 24.6881 40.0511 25.003 40.2051 25.2457L45.3574 33.4459C45.646 33.9051 45.3138 34.5025 44.7725 34.5025H36.7373C36.488 34.5025 36.2552 34.3676 36.1338 34.148L31.6836 26.1246H31.543V33.8131C31.543 34.1936 31.2341 34.5025 30.8535 34.5025H23.9268C23.5463 34.5023 23.2383 34.1934 23.2383 33.8131V10.3248C23.2385 9.94464 23.5465 9.63654 23.9268 9.63632H30.8535ZM57.4355 21.776C55.6507 21.776 55.6113 24.0976 55.6113 25.8687C55.6113 27.6399 55.6505 29.9498 57.4355 29.9498C59.2202 29.9495 59.2461 27.653 59.2461 25.8687C59.2461 24.0846 59.2201 21.7763 57.4355 21.776ZM72.207 18.8463C72.3185 18.5185 72.4237 18.1809 72.5352 17.8531C72.6464 17.5163 72.7511 17.1889 72.8623 16.8619H73.415V19.4273H73.0312V17.5016C72.9197 17.8229 72.8146 18.1412 72.7031 18.4625C72.5981 18.7905 72.4924 19.1128 72.3809 19.4244H72.0371L71.3867 17.4986V19.4244H71.0029V16.859H71.5576L72.207 18.8463ZM70.665 16.859V17.2262H69.8379V19.4244H69.4385V17.2262H68.6211V16.859H70.665ZM72.8623 16.8619H72.8604L72.8633 16.859C72.8629 16.86 72.8626 16.8609 72.8623 16.8619ZM56.6904 6.0748C56.9725 5.83877 57.3856 5.84803 57.6514 6.10019L58.082 6.50449C58.1138 6.5346 58.1419 6.56717 58.167 6.60117C58.1761 6.59096 58.1842 6.57997 58.1934 6.56992C58.3508 6.38954 58.5211 6.23152 58.6982 6.08066C58.9771 5.84122 59.394 5.85154 59.6631 6.1041L60.0928 6.50742C60.4012 6.79603 60.3985 7.28489 60.0869 7.56699C59.6998 7.91129 59.3747 8.30125 59.168 8.81601C59.0662 9.05873 59.0132 9.29217 59.0264 9.56113C59.0264 9.77758 59.0921 10.0469 59.1807 10.2535C59.476 10.9716 60.0313 11.368 60.5693 11.8697C60.9532 12.2305 61.3529 12.6543 61.5957 13.1168C61.7105 13.3234 61.8126 13.5923 61.8389 13.8219C61.8651 14.0908 61.8747 14.3991 61.7861 14.6549C61.6812 14.9992 61.517 15.3597 61.2842 15.6549C61.0513 15.9467 60.7885 16.2223 60.5195 16.4879C60.2439 16.7601 59.804 16.7708 59.5186 16.5084L59.0762 16.0982H59.0791C59.0433 16.0651 59.0119 16.0288 58.9844 15.9908C58.8303 16.1616 58.6688 16.3279 58.5049 16.4918C58.2326 16.7606 57.7932 16.7735 57.5078 16.5113L57.0547 16.0982H57.0576C57.0201 16.064 56.9874 16.0265 56.959 15.9869C56.8041 16.1608 56.6427 16.3296 56.4775 16.4947C56.2052 16.767 55.7617 16.7737 55.4795 16.5113L55.0332 16.0982L55.04 16.0943C54.7383 15.8155 54.7315 15.3399 55.0234 15.0514C55.3286 14.7496 55.6143 14.435 55.8604 14.0611C56.0407 13.7923 56.1553 13.5103 56.1816 13.1891C56.221 12.4839 55.7096 11.8664 55.2207 11.4039C54.7942 11.0071 54.3214 10.6729 53.9736 10.2105C53.6521 9.78742 53.445 9.30167 53.3564 8.78671C53.2122 7.97663 53.6254 7.14324 54.1504 6.56601C54.3079 6.38561 54.4791 6.22861 54.6562 6.07773C54.9351 5.83833 55.352 5.84766 55.6211 6.10019L56.0508 6.50449C56.084 6.53564 56.1127 6.56978 56.1387 6.60507C56.1489 6.59346 56.1586 6.58133 56.1689 6.56992C56.3297 6.38959 56.5068 6.2289 56.6904 6.0748ZM7.62891 9.63632C8.00933 9.63632 8.31814 9.94457 8.31836 10.3248V14.7232C8.31836 15.1037 8.00947 15.4127 7.62891 15.4127H0.689453C0.308894 15.4127 0 15.1037 0 14.7232V10.3248C0.000221561 9.94457 0.309031 9.63632 0.689453 9.63632H7.62891ZM19.2451 9.63632C19.6254 9.63652 19.9334 9.94469 19.9336 10.3248V14.7232C19.9336 15.1035 19.6255 15.4125 19.2451 15.4127H12.3047C11.9242 15.4126 11.6162 15.1036 11.6162 14.7232V10.3248C11.6164 9.94465 11.9244 9.63644 12.3047 9.63632H19.2451ZM55.3506 8.36777C55.2654 8.50589 55.1891 8.65332 55.125 8.81308C55.0234 9.05564 54.9713 9.28848 54.9844 9.55722C54.9844 9.77368 55.0501 10.043 55.1387 10.2496C55.434 10.9679 55.9882 11.365 56.5264 11.8668C56.9102 12.2276 57.3109 12.6505 57.5537 13.1129C57.6685 13.3194 57.7696 13.5885 57.7959 13.818C57.8055 13.9304 57.8111 14.0501 57.8105 14.1695C57.8357 14.1343 57.8632 14.1004 57.8877 14.0641C58.055 13.7951 58.1832 13.5134 58.1963 13.192C58.2357 12.4869 57.7242 11.8703 57.2354 11.4078C56.8088 11.0109 56.3492 10.676 55.9883 10.2135C55.68 9.79049 55.4597 9.30539 55.3711 8.79062C55.3489 8.65002 55.3431 8.50829 55.3506 8.36777ZM57.3701 8.37949C57.2857 8.51516 57.2093 8.65965 57.1436 8.81601C57.0418 9.05873 56.9888 9.29217 57.002 9.56113C57.0151 9.77758 57.0808 10.0469 57.1562 10.2535C57.4614 10.9714 58.0027 11.3681 58.5537 11.8697C58.9245 12.2305 59.3382 12.6543 59.5811 13.1168C59.6959 13.3234 59.798 13.5923 59.8242 13.8219C59.8333 13.9283 59.8363 14.0409 59.835 14.1539C59.8558 14.1238 59.8791 14.0949 59.8994 14.0641C60.0798 13.7952 60.1944 13.5133 60.2207 13.192C60.2568 12.487 59.7456 11.8703 59.2568 11.4078C58.8336 11.0109 58.3605 10.676 58.0127 10.2135C57.6913 9.79049 57.4841 9.30537 57.3955 8.79062C57.3717 8.65393 57.3645 8.51615 57.3701 8.37949Z" fill="#EF3B39"></path> </svg>
